<svg  width="21" height="22" overflow="visible" style="display: block;" viewBox="0 0 21 22" fill="none" xmlns="http://www.w3.org/2000/svg">
<g id="Frame" clip-path="url(#clip0_0_20)">
<path id="Vector" fill-rule="evenodd" clip-rule="evenodd" d="M16.6765 0C14.2886 0 12.3529 1.91522 12.3529 4.27778V6.523C11.7909 6.259 11.1634 6.11111 10.5 6.11111C8.11218 6.11111 6.17647 8.02633 6.17647 10.3889V11.4119C5.61441 11.1479 4.98688 11 4.32353 11C1.93571 11 0 12.9152 0 15.2778V22H21V4.27778C21 1.91522 19.0643 0 16.6765 0ZM14.8235 19.5556H18.5294V4.27778C18.5294 3.26578 17.6993 2.44444 16.6765 2.44444C15.6536 2.44444 14.8235 3.26578 14.8235 4.27778V19.5556ZM12.3529 19.5556V10.3889C12.3529 9.37689 11.5228 8.55556 10.5 8.55556C9.47718 8.55556 8.64706 9.37689 8.64706 10.3889V19.5556H12.3529ZM6.17647 15.2778V19.5556H2.47059V15.2778C2.47059 14.2658 3.30071 13.4444 4.32353 13.4444C5.34635 13.4444 6.17647 14.2658 6.17647 15.2778Z" fill="#94A3B8"/>
</g>
<defs>
<clipPath id="clip0_0_20">
<rect width="21" height="22" fill="white"/>
</clipPath>
</defs>
</svg>
