<svg width="24" height="24" viewBox="8 8 24 24" fill="none" xmlns="http://www.w3.org/2000/svg"><path fill-rule="evenodd" clip-rule="evenodd" d="M20 8C15.1765 8 11.2664 11.7608 11.2664 16.4V20.1332C11.2664 21.4376 10.9507 22.724 10.3444 23.8904L8 28.4H15.1678C15.3886 29.2232 15.8353 29.9828 16.4716 30.5936C17.4074 31.4948 18.6762 32 20 32C21.3238 32 22.5926 31.4948 23.5284 30.5936C24.1647 29.9828 24.6114 29.2232 24.8322 28.4H32L29.6556 23.8904C29.0493 22.724 28.7336 21.4376 28.7336 20.1332V16.4C28.7336 11.7608 24.8235 8 20 8ZM22.1609 28.4H17.8391C17.9476 28.58 18.0799 28.748 18.2358 28.8968C18.7037 29.3468 19.3387 29.6 20 29.6C20.6613 29.6 21.2963 29.3468 21.7642 28.8968C21.9201 28.748 22.0524 28.58 22.1609 28.4ZM27.9626 26L27.4236 24.9632C26.6438 23.4644 26.2383 21.8108 26.2383 20.1332V16.4C26.2383 13.0868 23.4448 10.4 20 10.4C16.5552 10.4 13.7617 13.0868 13.7617 16.4V20.1332C13.7617 21.8108 13.3562 23.4644 12.5764 24.9632L12.0374 26H27.9626Z" fill="#475569"/></svg>
